<svg 
          width="40.625" 
          height="34.375" fill="none" 
          xmlns="http://www.w3.org/2000/svg">
          <path d="M 0 0 L 0 28.125 C 0 31.57958984375 2.79541015625 34.375 6.25 34.375 L 34.375 34.375 C 37.82958984375 34.375 40.625 31.57958984375 40.625 28.125 L 40.625 10.9375 L 31.25 10.9375 L 31.25 0 L 0 0 Z M 3.125 3.125 L 28.125 3.125 L 28.125 28.125 C 28.125 29.266357421875 28.472900390625 30.328369140625 29.00390625 31.25 L 6.25 31.25 C 4.388427734375 31.25 3.125 29.986572265625 3.125 28.125 L 3.125 3.125 Z M 6.25 6.25 L 6.25 14.0625 L 25 14.0625 L 25 6.25 L 6.25 6.25 Z M 9.375 9.375 L 21.875 9.375 L 21.875 10.9375 L 9.375 10.9375 L 9.375 9.375 Z M 31.25 14.0625 L 37.5 14.0625 L 37.5 28.125 C 37.5 29.986572265625 36.236572265625 31.25 34.375 31.25 C 32.513427734375 31.25 31.25 29.986572265625 31.25 28.125 L 31.25 14.0625 Z M 6.25 15.625 L 6.25 18.75 L 14.0625 18.75 L 14.0625 15.625 L 6.25 15.625 Z M 17.1875 15.625 L 17.1875 18.75 L 25 18.75 L 25 15.625 L 17.1875 15.625 Z M 6.25 20.3125 L 6.25 23.4375 L 14.0625 23.4375 L 14.0625 20.3125 L 6.25 20.3125 Z M 17.1875 20.3125 L 17.1875 23.4375 L 25 23.4375 L 25 20.3125 L 17.1875 20.3125 Z M 6.25 25 L 6.25 28.125 L 14.0625 28.125 L 14.0625 25 L 6.25 25 Z M 17.1875 25 L 17.1875 28.125 L 25 28.125 L 25 25 L 17.1875 25 Z" fill="rgb(29.000000171363354,29.000000171363354,29.000000171363354)"/>
        </svg>